<?xml version="1.0" encoding="UTF-8"?>
<svg version="1.1" xmlns="http://www.w3.org/2000/svg" width="128" height="128">
<path d="M0 0 C1.20269531 -0.02578125 2.40539063 -0.0515625 3.64453125 -0.078125 C8.95322302 0.41352892 12.11546034 2.15243559 15.8125 5.9375 C18.11267118 8.71507779 18.11267118 8.71507779 22.1875 8.25 C23.87623879 6.60570171 25.54055515 4.93615782 27.1875 3.25 C31.65209794 0.55716944 34.99590402 -0.15915524 40.1875 -0.125 C41.9509375 -0.13660156 41.9509375 -0.13660156 43.75 -0.1484375 C51.14655013 0.7088899 55.36471422 4.82233155 59.9375 10.375 C62.48857049 14.20160574 62.35151512 17.71128246 62.375 22.1875 C62.38917969 23.41339844 62.40335937 24.63929687 62.41796875 25.90234375 C62.20426797 29.00643812 61.82748182 30.66362551 60.1875 33.25 C60.76757812 33.34796875 61.34765625 33.4459375 61.9453125 33.546875 C70.26403385 35.1392375 75.14774151 38.53032201 80.1875 45.25 C83.56902543 50.61298069 82.84766336 57.1724136 82.1875 63.25 C79.84985615 69.72116002 74.77075928 74.45837036 68.6875 77.5 C65.87241205 78.34452638 63.09630559 78.84412015 60.1875 79.25 C60.51105469 79.76820312 60.83460937 80.28640625 61.16796875 80.8203125 C62.50863442 84.01530884 62.48884452 86.66680204 62.5 90.125 C62.51675781 91.31867188 62.53351563 92.51234375 62.55078125 93.7421875 C61.77953629 101.18926245 57.63865168 105.40787509 52.0625 110 C48.28612956 112.5175803 44.79617673 112.44349934 40.375 112.5 C39.17230469 112.52578125 37.96960938 112.5515625 36.73046875 112.578125 C31.42177698 112.08647108 28.25953966 110.34756441 24.5625 106.5625 C22.26232882 103.78492221 22.26232882 103.78492221 18.1875 104.25 C16.49876121 105.89429829 14.83444485 107.56384218 13.1875 109.25 C8.72290206 111.94283056 5.37909598 112.65915524 0.1875 112.625 C-0.988125 112.63273437 -2.16375 112.64046875 -3.375 112.6484375 C-10.77155013 111.7911101 -14.98971422 107.67766845 -19.5625 102.125 C-22.11357049 98.29839426 -21.97651512 94.78871754 -22 90.3125 C-22.01417969 89.08660156 -22.02835938 87.86070313 -22.04296875 86.59765625 C-21.82926797 83.49356188 -21.45248182 81.83637449 -19.8125 79.25 C-20.39257812 79.15203125 -20.97265625 79.0540625 -21.5703125 78.953125 C-29.19656029 77.49331519 -34.60817145 74.43268798 -39.546875 68.36328125 C-42.72289804 63.06010698 -43.30423526 56.67100694 -42.4375 50.625 C-40.73504792 44.51813963 -36.23510902 39.43646839 -30.94140625 36.0546875 C-27.38424853 34.42267305 -23.67663144 33.72123554 -19.8125 33.25 C-20.13605469 32.73179688 -20.45960937 32.21359375 -20.79296875 31.6796875 C-22.13363442 28.48469116 -22.11384452 25.83319796 -22.125 22.375 C-22.15013672 20.58449219 -22.15013672 20.58449219 -22.17578125 18.7578125 C-21.40453629 11.31073755 -17.26365168 7.09212491 -11.6875 2.5 C-7.91112956 -0.0175803 -4.42117673 0.05650066 0 0 Z M4.1875 47.4375 C2.36900926 52.5520052 2.14745938 58.20256916 3.9140625 63.37890625 C6.51315629 68.27069659 9.95640873 71.50630291 15.1875 73.25 C21.15639281 73.78422104 26.12343698 73.78306722 31.1875 70.25 C35.4260253 66.03451016 37.32703707 62.43011395 37.4375 56.4375 C37.36229984 51.26372902 36.52599292 47.60127157 32.7578125 43.8125 C27.72536775 39.40598122 23.53277416 38.78442497 17.05078125 38.8359375 C11.31163041 39.66588292 7.95609644 43.31559765 4.1875 47.4375 Z " fill="#FEFEFE" transform="translate(43.8125,7.75)"/>
</svg>
