<svg width="616" height="170" viewBox="0 0 616 170" fill="none" xmlns="http://www.w3.org/2000/svg">
<g clip-path="url(#clip0_10_4)">
<path fill-rule="evenodd" clip-rule="evenodd" d="M49 0C21.938 0 0 21.938 0 49C0 76.062 21.938 98 49 98H242C259.554 98 273.907 111.706 274.941 129H275V126.909C275.001 126.543 275.008 126.178 275.021 125.814C275.715 147.573 293.572 165 315.5 165H568.5C590.868 165 609 146.868 609 124.5C609 105.22 595.528 89.0867 577.484 85H578C577.897 85 577.794 84.9995 577.692 84.9986C577.616 84.9979 577.541 84.997 577.466 84.9958C575.057 84.4515 572.567 84.1218 570.017 84.0279C555.649 80.4582 545 67.4727 545 52V49V43C545 44.0074 544.97 45.0077 544.91 46C543.36 20.3351 522.055 0 496 0H49ZM242.306 163.999V164H242C242.067 164 242.133 164 242.2 163.999L242.306 163.999ZM577.694 19V19.0014L577.832 19.0004C577.888 19.0001 577.944 19 578 19H577.694Z" fill="white"/>
<path d="M63.3516 61.5C61.7422 63.125 59.8203 64.3984 57.5859 65.3203C55.3516 66.2422 52.9141 66.7031 50.2734 66.7031C47.6328 66.7031 45.1953 66.25 42.9609 65.3438C40.7422 64.4375 38.8125 63.1641 37.1719 61.5234C35.5312 59.8672 34.2578 57.9297 33.3516 55.7109C32.4453 53.4766 31.9922 51.0469 31.9922 48.4219C31.9922 45.7812 32.4453 43.3516 33.3516 41.1328C34.2578 38.8984 35.5312 36.9609 37.1719 35.3203C38.8125 33.6797 40.7422 32.4062 42.9609 31.5C45.1953 30.5938 47.6328 30.1406 50.2734 30.1406C52.8984 30.1406 55.3281 30.6016 57.5625 31.5234C59.7969 32.4297 61.7188 33.6953 63.3281 35.3203L60.4453 38.25C59.1953 36.8594 57.6953 35.7734 55.9453 34.9922C54.1953 34.1953 52.2812 33.7969 50.2031 33.7969C48.1875 33.7969 46.3281 34.1641 44.625 34.8984C42.9219 35.6172 41.4375 36.6406 40.1719 37.9688C38.9219 39.2812 37.9453 40.8281 37.2422 42.6094C36.5547 44.3906 36.2109 46.3281 36.2109 48.4219C36.2109 50.5312 36.5547 52.4766 37.2422 54.2578C37.9453 56.0234 38.9219 57.5703 40.1719 58.8984C41.4375 60.2109 42.9219 61.2344 44.625 61.9688C46.3281 62.6875 48.1875 63.0469 50.2031 63.0469C52.2812 63.0469 54.1953 62.6562 55.9453 61.875C57.6953 61.0781 59.1953 59.9844 60.4453 58.5938L63.3516 61.5ZM90.7734 66H69.2109V30.8438H73.3359V62.3438H90.7734V66ZM96.1641 66V30.8438H100.289V66H96.1641ZM99.2109 26.9531H96.4219L100.102 19.125H103.781L99.2109 26.9531ZM138.141 66H133.781L111.68 37.2891V66H107.555V30.8438H111.914L134.016 59.5547V30.8438H138.141V66ZM145.43 66V30.8438H149.555V66H145.43ZM186.539 61.5C184.93 63.125 183.008 64.3984 180.773 65.3203C178.539 66.2422 176.102 66.7031 173.461 66.7031C170.82 66.7031 168.383 66.25 166.148 65.3438C163.93 64.4375 162 63.1641 160.359 61.5234C158.719 59.8672 157.445 57.9297 156.539 55.7109C155.633 53.4766 155.18 51.0469 155.18 48.4219C155.18 45.7812 155.633 43.3516 156.539 41.1328C157.445 38.8984 158.719 36.9609 160.359 35.3203C162 33.6797 163.93 32.4062 166.148 31.5C168.383 30.5938 170.82 30.1406 173.461 30.1406C176.086 30.1406 178.516 30.6016 180.75 31.5234C182.984 32.4297 184.906 33.6953 186.516 35.3203L183.633 38.25C182.383 36.8594 180.883 35.7734 179.133 34.9922C177.383 34.1953 175.469 33.7969 173.391 33.7969C171.375 33.7969 169.516 34.1641 167.812 34.8984C166.109 35.6172 164.625 36.6406 163.359 37.9688C162.109 39.2812 161.133 40.8281 160.43 42.6094C159.742 44.3906 159.398 46.3281 159.398 48.4219C159.398 50.5312 159.742 52.4766 160.43 54.2578C161.133 56.0234 162.109 57.5703 163.359 58.8984C164.625 60.2109 166.109 61.2344 167.812 61.9688C169.516 62.6875 171.375 63.0469 173.391 63.0469C175.469 63.0469 177.383 62.6562 179.133 61.875C180.883 61.0781 182.383 59.9844 183.633 58.5938L186.539 61.5ZM193.688 66H189.352L203.789 30.8438H208.266L222.68 66H218.344L214.523 56.5078H197.508L193.688 66ZM198.961 52.8516H213.07L206.016 35.2969L198.961 52.8516ZM239.086 66V30.8438H249.211C253.523 30.8438 257.227 31.5469 260.32 32.9531C263.43 34.3594 265.812 36.375 267.469 39C269.141 41.625 269.977 44.7656 269.977 48.4219C269.977 52.0625 269.141 55.2031 267.469 57.8438C265.812 60.4688 263.43 62.4844 260.32 63.8906C257.227 65.2969 253.523 66 249.211 66H239.086ZM243.211 62.3438H249.398C252.852 62.3438 255.797 61.7969 258.234 60.7031C260.672 59.6094 262.531 58.0234 263.812 55.9453C265.109 53.8672 265.758 51.3594 265.758 48.4219C265.758 45.4844 265.109 42.9766 263.812 40.8984C262.531 38.8203 260.672 37.2344 258.234 36.1406C255.797 35.0469 252.852 34.5 249.398 34.5H243.211V62.3438ZM275.602 66V30.8438H297.141V34.5H279.727V46.3125H296.18V49.9688H279.727V62.3438H297.375V66H275.602ZM316.148 66V30.8438H328.617C331.977 30.8438 334.617 31.6172 336.539 33.1641C338.461 34.7109 339.422 36.8359 339.422 39.5391C339.422 41.4609 338.945 43.1406 337.992 44.5781C337.039 46 335.766 47.0312 334.172 47.6719C336.312 48.2031 337.992 49.2266 339.211 50.7422C340.445 52.2422 341.062 54.0859 341.062 56.2734C341.062 58.2109 340.578 59.9141 339.609 61.3828C338.656 62.8359 337.32 63.9688 335.602 64.7812C333.883 65.5938 331.875 66 329.578 66H316.148ZM320.273 46.3594H328.523C330.586 46.3594 332.234 45.8125 333.469 44.7188C334.719 43.625 335.344 42.1797 335.344 40.3828C335.344 38.5703 334.711 37.1406 333.445 36.0938C332.18 35.0312 330.453 34.5 328.266 34.5H320.273V46.3594ZM320.273 62.3438H328.688C330.312 62.3438 331.734 62.0703 332.953 61.5234C334.172 60.9609 335.125 60.1875 335.812 59.2031C336.5 58.2031 336.844 57.0547 336.844 55.7578C336.844 54.4922 336.516 53.3906 335.859 52.4531C335.219 51.5156 334.305 50.7969 333.117 50.2969C331.945 49.7812 330.562 49.5234 328.969 49.5234H320.273V62.3438ZM346.711 66V30.8438H368.25V34.5H350.836V46.3125H367.289V49.9688H350.836V62.3438H368.484V66H346.711ZM397.102 66H375.539V30.8438H379.664V62.3438H397.102V66ZM424.055 66H402.492V30.8438H406.617V62.3438H424.055V66ZM429.445 66V30.8438H450.984V34.5H433.57V46.3125H450.023V49.9688H433.57V62.3438H451.219V66H429.445ZM482.438 66H456.164V62.8359L476.766 34.5H457.102V30.8438H482.062V34.2422L461.648 62.3438H482.438V66ZM489.844 66H485.508L499.945 30.8438H504.422L518.836 66H514.5L510.68 56.5078H493.664L489.844 66ZM495.117 52.8516H509.227L502.172 35.2969L495.117 52.8516Z" fill="black"/>
<path d="M131.223 142V112.703H133.801V142H131.223ZM142.395 142H140.246V112.703H142.648V126.18C143.495 124.917 144.608 123.921 145.988 123.191C147.368 122.449 148.905 122.078 150.598 122.078C152.512 122.078 154.217 122.521 155.715 123.406C157.225 124.292 158.417 125.503 159.289 127.039C160.161 128.562 160.598 130.294 160.598 132.234C160.598 134.161 160.161 135.893 159.289 137.43C158.417 138.966 157.225 140.177 155.715 141.062C154.217 141.948 152.512 142.391 150.598 142.391C148.866 142.391 147.297 142.007 145.891 141.238C144.497 140.47 143.371 139.441 142.512 138.152L142.395 142ZM150.402 140.223C151.874 140.223 153.189 139.878 154.348 139.188C155.52 138.484 156.444 137.534 157.121 136.336C157.798 135.125 158.137 133.764 158.137 132.254C158.137 130.73 157.798 129.363 157.121 128.152C156.444 126.941 155.52 125.991 154.348 125.301C153.189 124.598 151.874 124.246 150.402 124.246C148.996 124.246 147.72 124.572 146.574 125.223C145.441 125.861 144.523 126.74 143.82 127.859C143.13 128.966 142.74 130.229 142.648 131.648V132.801C142.74 134.22 143.13 135.49 143.82 136.609C144.51 137.729 145.422 138.615 146.555 139.266C147.701 139.904 148.983 140.223 150.402 140.223ZM180.695 142H178.645L178.449 138.738C177.798 139.858 176.887 140.75 175.715 141.414C174.543 142.065 173.208 142.391 171.711 142.391C170.331 142.391 169.094 142.124 168 141.59C166.919 141.043 166.066 140.301 165.441 139.363C164.816 138.413 164.504 137.339 164.504 136.141C164.504 134.891 164.842 133.784 165.52 132.82C166.197 131.857 167.128 131.102 168.312 130.555C169.497 129.995 170.845 129.715 172.355 129.715C173.41 129.715 174.458 129.852 175.5 130.125C176.542 130.398 177.473 130.783 178.293 131.277V129.949C178.293 128.764 178.033 127.749 177.512 126.902C176.991 126.056 176.275 125.411 175.363 124.969C174.465 124.513 173.443 124.285 172.297 124.285C171.307 124.285 170.318 124.467 169.328 124.832C168.339 125.184 167.414 125.711 166.555 126.414L165.695 124.344C166.763 123.602 167.902 123.042 169.113 122.664C170.337 122.273 171.555 122.078 172.766 122.078C174.393 122.078 175.793 122.41 176.965 123.074C178.15 123.738 179.068 124.682 179.719 125.906C180.37 127.117 180.695 128.562 180.695 130.242V142ZM172.102 140.184C173.234 140.184 174.257 139.943 175.168 139.461C176.092 138.966 176.835 138.276 177.395 137.391C177.954 136.492 178.254 135.464 178.293 134.305V133.641C177.486 133.029 176.607 132.566 175.656 132.254C174.719 131.928 173.742 131.766 172.727 131.766C171.073 131.766 169.699 132.163 168.605 132.957C167.525 133.751 166.984 134.773 166.984 136.023C166.984 136.805 167.206 137.514 167.648 138.152C168.104 138.777 168.716 139.272 169.484 139.637C170.266 140.001 171.138 140.184 172.102 140.184ZM194.992 141.863C193.143 141.863 191.483 141.434 190.012 140.574C188.54 139.702 187.375 138.523 186.516 137.039C185.669 135.542 185.246 133.855 185.246 131.98C185.246 130.092 185.669 128.406 186.516 126.922C187.375 125.424 188.54 124.246 190.012 123.387C191.483 122.514 193.15 122.078 195.012 122.078C196.704 122.078 198.228 122.449 199.582 123.191C200.949 123.934 202.043 124.93 202.863 126.18L202.98 122.469H205.129V141.512C205.129 143.712 204.712 145.607 203.879 147.195C203.046 148.784 201.854 150.008 200.305 150.867C198.755 151.727 196.906 152.156 194.758 152.156C191.698 152.156 189.074 151.121 186.887 149.051L188.02 147.137C189.816 149.038 192.049 149.988 194.719 149.988C196.372 149.988 197.792 149.637 198.977 148.934C200.174 148.243 201.099 147.267 201.75 146.004C202.401 144.741 202.727 143.237 202.727 141.492V137.918C201.893 139.129 200.806 140.092 199.465 140.809C198.124 141.512 196.633 141.863 194.992 141.863ZM195.188 139.734C196.568 139.734 197.818 139.422 198.938 138.797C200.057 138.172 200.956 137.319 201.633 136.238C202.323 135.145 202.688 133.908 202.727 132.527V131.434C202.688 130.04 202.323 128.803 201.633 127.723C200.956 126.629 200.057 125.77 198.938 125.145C197.831 124.52 196.587 124.207 195.207 124.207C193.775 124.207 192.486 124.552 191.34 125.242C190.207 125.919 189.309 126.844 188.645 128.016C187.993 129.174 187.668 130.496 187.668 131.98C187.668 133.452 187.993 134.773 188.645 135.945C189.309 137.117 190.207 138.042 191.34 138.719C192.473 139.396 193.755 139.734 195.188 139.734ZM228.664 142H226.535L226.457 138.328C225.767 139.643 224.816 140.652 223.605 141.355C222.408 142.046 220.969 142.391 219.289 142.391C216.711 142.391 214.68 141.609 213.195 140.047C211.724 138.471 210.988 136.31 210.988 133.562V122.469H213.391V133.406C213.391 135.49 213.957 137.143 215.09 138.367C216.223 139.578 217.753 140.184 219.68 140.184C221.672 140.184 223.267 139.546 224.465 138.27C225.663 136.98 226.262 135.268 226.262 133.133V122.469H228.664V142ZM252.082 139.559C249.686 141.447 247.03 142.391 244.113 142.391C242.095 142.391 240.285 141.941 238.684 141.043C237.095 140.132 235.845 138.895 234.934 137.332C234.022 135.77 233.566 133.999 233.566 132.02C233.566 130.105 233.99 128.4 234.836 126.902C235.695 125.405 236.867 124.227 238.352 123.367C239.836 122.508 241.522 122.078 243.41 122.078C245.324 122.078 247.01 122.534 248.469 123.445C249.927 124.344 251.066 125.594 251.887 127.195C252.707 128.784 253.117 130.626 253.117 132.723V133.328H236.164C236.32 134.695 236.77 135.893 237.512 136.922C238.254 137.951 239.211 138.751 240.383 139.324C241.568 139.897 242.889 140.184 244.348 140.184C246.743 140.184 248.944 139.389 250.949 137.801L252.082 139.559ZM236.086 131.258H250.871C250.754 129.865 250.37 128.647 249.719 127.605C249.068 126.564 248.208 125.75 247.141 125.164C246.086 124.578 244.882 124.285 243.527 124.285C242.16 124.285 240.93 124.578 239.836 125.164C238.755 125.75 237.883 126.57 237.219 127.625C236.568 128.667 236.19 129.878 236.086 131.258ZM243.918 119.207H242.16L245.324 112.703H247.707L243.918 119.207Z" fill="black"/>
<path fill-rule="evenodd" clip-rule="evenodd" d="M95.0985 112.019L94.2276 112.039C94.1808 112.04 94.1345 112.041 94.0887 112.041C93.0972 112.054 92.2972 112.064 91.4347 112.704C90.1023 113.926 89.1127 115.048 88.9284 117.028L88.9406 117.99C88.9406 118.009 88.9407 118.028 88.9407 118.047C88.9432 118.939 88.9451 119.633 89.2589 120.465L89.4932 120.883C88.5698 121.008 87.6838 121.195 86.8338 121.629C85.5688 122.528 84.4935 123.88 84.0867 125.504C83.8796 127.112 84.0185 128.811 84.7774 130.222C85.9576 131.836 87.2508 132.65 89.0731 133.038L89.4932 133.117C89.1013 133.805 89.0112 134.246 88.9602 135.071L88.9705 136.059C88.9708 136.125 88.971 136.19 88.9711 136.255C88.9744 137.353 88.977 138.24 89.5529 139.201C90.6456 140.678 91.6536 141.772 93.4211 142L94.2724 141.994C95.513 142.003 96.312 141.812 97.3789 141.096C97.7724 140.648 98.1701 140.204 98.5737 139.766C99.0729 139.703 99.3162 139.672 99.5088 139.757C99.6919 139.837 99.8292 140.021 100.097 140.381C100.98 141.388 101.736 141.851 103.005 141.981L103.876 141.961C103.922 141.96 103.969 141.959 104.015 141.959C105.006 141.946 105.806 141.936 106.668 141.296C108.001 140.074 108.99 138.952 109.175 136.972L109.163 136.01L109.162 135.953C109.16 135.061 109.158 134.367 108.844 133.535L108.61 133.117C109.305 133.009 109.968 132.876 110.641 132.652C112.095 131.843 113.309 130.583 113.867 128.862L113.868 128.851C114.026 127.238 114.195 125.498 113.389 124.074C112.185 122.287 111.018 121.385 109.03 120.962L108.61 120.883C109.002 120.195 109.092 119.754 109.143 118.929L109.133 117.941C109.132 117.875 109.132 117.81 109.132 117.745C109.129 116.647 109.126 115.76 108.55 114.799C107.458 113.322 106.45 112.228 104.682 112L103.831 112.006C102.59 111.997 101.791 112.188 100.724 112.904C100.331 113.352 99.9331 113.796 99.5295 114.234C98.5558 114.357 98.5558 114.357 98.0061 113.619C97.1227 112.612 96.3671 112.149 95.0985 112.019ZM95.1629 128.896C94.7407 127.519 94.7937 126.016 95.2282 124.656C96.1288 123.56 96.9306 122.589 98.302 122.368C99.851 122.355 100.853 122.52 102.055 123.692C102.956 124.7 103.156 125.674 103.174 127.05C103.147 128.644 102.693 129.602 101.68 130.724C100.47 131.663 99.2831 131.663 97.8568 131.521C96.6068 131.058 95.784 130.197 95.1629 128.896Z" fill="black"/>
<path d="M310.859 138V102.844H323.867C327.648 102.844 330.578 103.648 332.656 105.258C334.75 106.852 335.797 109.094 335.797 111.984C335.797 113.75 335.383 115.312 334.555 116.672C333.727 118.016 332.609 119.039 331.203 119.742C333.203 120.336 334.758 121.359 335.867 122.812C336.992 124.25 337.555 126.016 337.555 128.109C337.555 130.109 337.062 131.852 336.078 133.336C335.109 134.805 333.734 135.953 331.953 136.781C330.188 137.594 328.109 138 325.719 138H310.859ZM318.078 117.562H323.469C325.078 117.562 326.352 117.18 327.289 116.414C328.227 115.648 328.695 114.609 328.695 113.297C328.695 112.016 328.219 111.008 327.266 110.273C326.328 109.523 325.023 109.148 323.352 109.148H318.078V117.562ZM318.078 131.695H323.914C325.195 131.695 326.305 131.516 327.242 131.156C328.18 130.781 328.898 130.258 329.398 129.586C329.914 128.898 330.172 128.102 330.172 127.195C330.172 126.289 329.938 125.516 329.469 124.875C329.016 124.234 328.352 123.75 327.477 123.422C326.602 123.078 325.562 122.906 324.359 122.906H318.078V131.695ZM341.938 138V102.844H364.625V109.148H349.156V117.141H363.664V123.469H349.156V131.695H364.859V138H341.938ZM402.289 138H393.992L377.562 114V138H370.344V102.844H378.641L395.07 126.891V102.844H402.289V138ZM408.031 138V102.844H430.719V109.148H415.25V117.141H429.758V123.469H415.25V131.695H430.953V138H408.031ZM459.406 138H436.438V102.844H443.656V131.695H459.406V138ZM478.438 138.703C475.766 138.703 473.297 138.25 471.031 137.344C468.781 136.422 466.82 135.141 465.148 133.5C463.492 131.844 462.203 129.906 461.281 127.688C460.375 125.469 459.922 123.047 459.922 120.422C459.922 117.797 460.375 115.375 461.281 113.156C462.203 110.922 463.492 108.984 465.148 107.344C466.82 105.688 468.781 104.406 471.031 103.5C473.297 102.594 475.766 102.141 478.438 102.141C481.109 102.141 483.57 102.602 485.82 103.523C488.07 104.43 490.016 105.703 491.656 107.344C493.312 108.984 494.602 110.914 495.523 113.133C496.445 115.352 496.906 117.781 496.906 120.422C496.906 123.047 496.445 125.477 495.523 127.711C494.617 129.93 493.336 131.859 491.68 133.5C490.023 135.141 488.07 136.422 485.82 137.344C483.57 138.25 481.109 138.703 478.438 138.703ZM478.438 132.398C480.016 132.398 481.477 132.094 482.82 131.484C484.18 130.875 485.359 130.031 486.359 128.953C487.359 127.859 488.133 126.594 488.68 125.156C489.242 123.703 489.523 122.125 489.523 120.422C489.523 118.719 489.242 117.141 488.68 115.688C488.133 114.234 487.359 112.969 486.359 111.891C485.359 110.797 484.18 109.953 482.82 109.359C481.477 108.75 480.016 108.445 478.438 108.445C476.844 108.445 475.367 108.75 474.008 109.359C472.664 109.953 471.484 110.797 470.469 111.891C469.469 112.969 468.688 114.234 468.125 115.688C467.578 117.141 467.305 118.719 467.305 120.422C467.305 122.125 467.578 123.703 468.125 125.156C468.688 126.609 469.469 127.883 470.469 128.977C471.484 130.055 472.664 130.898 474.008 131.508C475.367 132.102 476.844 132.398 478.438 132.398ZM519.547 138H511.906L497.891 102.844H505.461L515.727 129.75L525.945 102.844H533.539L519.547 138ZM537.523 138H529.953L543.969 102.844H551.586L565.578 138H558.008L555.125 130.453H540.406L537.523 138ZM542.773 124.125H552.781L547.766 111.094L542.773 124.125Z" fill="black"/>
</g>
<defs>
<clipPath id="clip0_10_4">
<rect width="616" height="170" fill="white"/>
</clipPath>
</defs>
</svg>
