<svg width="616" height="170" viewBox="0 0 616 170" fill="none" xmlns="http://www.w3.org/2000/svg">
<g clip-path="url(#clip0_10_4)">
<path fill-rule="evenodd" clip-rule="evenodd" d="M49 0C21.938 0 0 21.938 0 49C0 76.062 21.938 98 49 98H242C259.554 98 273.907 111.706 274.941 129H275V126.909C275.001 126.543 275.008 126.178 275.021 125.814C275.715 147.573 293.572 165 315.5 165H568.5C590.868 165 609 146.868 609 124.5C609 105.22 595.528 89.0867 577.484 85H578C577.897 85 577.794 84.9995 577.692 84.9986C577.616 84.9979 577.541 84.997 577.466 84.9958C575.057 84.4515 572.567 84.1218 570.017 84.0279C555.649 80.4582 545 67.4727 545 52V49V43C545 44.0074 544.97 45.0077 544.91 46C543.36 20.3351 522.055 0 496 0H49ZM242.306 163.999V164H242C242.067 164 242.133 164 242.2 163.999L242.306 163.999ZM577.694 19V19.0014L577.832 19.0004C577.888 19.0001 577.944 19 578 19H577.694Z" fill="white"/>
<path d="M63.3516 61.5C61.7422 63.125 59.8203 64.3984 57.5859 65.3203C55.3516 66.2422 52.9141 66.7031 50.2734 66.7031C47.6328 66.7031 45.1953 66.25 42.9609 65.3438C40.7422 64.4375 38.8125 63.1641 37.1719 61.5234C35.5312 59.8672 34.2578 57.9297 33.3516 55.7109C32.4453 53.4766 31.9922 51.0469 31.9922 48.4219C31.9922 45.7812 32.4453 43.3516 33.3516 41.1328C34.2578 38.8984 35.5312 36.9609 37.1719 35.3203C38.8125 33.6797 40.7422 32.4062 42.9609 31.5C45.1953 30.5938 47.6328 30.1406 50.2734 30.1406C52.8984 30.1406 55.3281 30.6016 57.5625 31.5234C59.7969 32.4297 61.7188 33.6953 63.3281 35.3203L60.4453 38.25C59.1953 36.8594 57.6953 35.7734 55.9453 34.9922C54.1953 34.1953 52.2812 33.7969 50.2031 33.7969C48.1875 33.7969 46.3281 34.1641 44.625 34.8984C42.9219 35.6172 41.4375 36.6406 40.1719 37.9688C38.9219 39.2812 37.9453 40.8281 37.2422 42.6094C36.5547 44.3906 36.2109 46.3281 36.2109 48.4219C36.2109 50.5312 36.5547 52.4766 37.2422 54.2578C37.9453 56.0234 38.9219 57.5703 40.1719 58.8984C41.4375 60.2109 42.9219 61.2344 44.625 61.9688C46.3281 62.6875 48.1875 63.0469 50.2031 63.0469C52.2812 63.0469 54.1953 62.6562 55.9453 61.875C57.6953 61.0781 59.1953 59.9844 60.4453 58.5938L63.3516 61.5ZM90.7734 66H69.2109V30.8438H73.3359V62.3438H90.7734V66ZM96.1641 66V30.8438H100.289V66H96.1641ZM99.2109 26.9531H96.4219L100.102 19.125H103.781L99.2109 26.9531ZM138.141 66H133.781L111.68 37.2891V66H107.555V30.8438H111.914L134.016 59.5547V30.8438H138.141V66ZM145.43 66V30.8438H149.555V66H145.43ZM186.539 61.5C184.93 63.125 183.008 64.3984 180.773 65.3203C178.539 66.2422 176.102 66.7031 173.461 66.7031C170.82 66.7031 168.383 66.25 166.148 65.3438C163.93 64.4375 162 63.1641 160.359 61.5234C158.719 59.8672 157.445 57.9297 156.539 55.7109C155.633 53.4766 155.18 51.0469 155.18 48.4219C155.18 45.7812 155.633 43.3516 156.539 41.1328C157.445 38.8984 158.719 36.9609 160.359 35.3203C162 33.6797 163.93 32.4062 166.148 31.5C168.383 30.5938 170.82 30.1406 173.461 30.1406C176.086 30.1406 178.516 30.6016 180.75 31.5234C182.984 32.4297 184.906 33.6953 186.516 35.3203L183.633 38.25C182.383 36.8594 180.883 35.7734 179.133 34.9922C177.383 34.1953 175.469 33.7969 173.391 33.7969C171.375 33.7969 169.516 34.1641 167.812 34.8984C166.109 35.6172 164.625 36.6406 163.359 37.9688C162.109 39.2812 161.133 40.8281 160.43 42.6094C159.742 44.3906 159.398 46.3281 159.398 48.4219C159.398 50.5312 159.742 52.4766 160.43 54.2578C161.133 56.0234 162.109 57.5703 163.359 58.8984C164.625 60.2109 166.109 61.2344 167.812 61.9688C169.516 62.6875 171.375 63.0469 173.391 63.0469C175.469 63.0469 177.383 62.6562 179.133 61.875C180.883 61.0781 182.383 59.9844 183.633 58.5938L186.539 61.5ZM193.688 66H189.352L203.789 30.8438H208.266L222.68 66H218.344L214.523 56.5078H197.508L193.688 66ZM198.961 52.8516H213.07L206.016 35.2969L198.961 52.8516ZM239.086 66V30.8438H249.211C253.523 30.8438 257.227 31.5469 260.32 32.9531C263.43 34.3594 265.812 36.375 267.469 39C269.141 41.625 269.977 44.7656 269.977 48.4219C269.977 52.0625 269.141 55.2031 267.469 57.8438C265.812 60.4688 263.43 62.4844 260.32 63.8906C257.227 65.2969 253.523 66 249.211 66H239.086ZM243.211 62.3438H249.398C252.852 62.3438 255.797 61.7969 258.234 60.7031C260.672 59.6094 262.531 58.0234 263.812 55.9453C265.109 53.8672 265.758 51.3594 265.758 48.4219C265.758 45.4844 265.109 42.9766 263.812 40.8984C262.531 38.8203 260.672 37.2344 258.234 36.1406C255.797 35.0469 252.852 34.5 249.398 34.5H243.211V62.3438ZM275.602 66V30.8438H297.141V34.5H279.727V46.3125H296.18V49.9688H279.727V62.3438H297.375V66H275.602ZM316.148 66V30.8438H328.617C331.977 30.8438 334.617 31.6172 336.539 33.1641C338.461 34.7109 339.422 36.8359 339.422 39.5391C339.422 41.4609 338.945 43.1406 337.992 44.5781C337.039 46 335.766 47.0312 334.172 47.6719C336.312 48.2031 337.992 49.2266 339.211 50.7422C340.445 52.2422 341.062 54.0859 341.062 56.2734C341.062 58.2109 340.578 59.9141 339.609 61.3828C338.656 62.8359 337.32 63.9688 335.602 64.7812C333.883 65.5938 331.875 66 329.578 66H316.148ZM320.273 46.3594H328.523C330.586 46.3594 332.234 45.8125 333.469 44.7188C334.719 43.625 335.344 42.1797 335.344 40.3828C335.344 38.5703 334.711 37.1406 333.445 36.0938C332.18 35.0312 330.453 34.5 328.266 34.5H320.273V46.3594ZM320.273 62.3438H328.688C330.312 62.3438 331.734 62.0703 332.953 61.5234C334.172 60.9609 335.125 60.1875 335.812 59.2031C336.5 58.2031 336.844 57.0547 336.844 55.7578C336.844 54.4922 336.516 53.3906 335.859 52.4531C335.219 51.5156 334.305 50.7969 333.117 50.2969C331.945 49.7812 330.562 49.5234 328.969 49.5234H320.273V62.3438ZM346.711 66V30.8438H368.25V34.5H350.836V46.3125H367.289V49.9688H350.836V62.3438H368.484V66H346.711ZM397.102 66H375.539V30.8438H379.664V62.3438H397.102V66ZM424.055 66H402.492V30.8438H406.617V62.3438H424.055V66ZM429.445 66V30.8438H450.984V34.5H433.57V46.3125H450.023V49.9688H433.57V62.3438H451.219V66H429.445ZM482.438 66H456.164V62.8359L476.766 34.5H457.102V30.8438H482.062V34.2422L461.648 62.3438H482.438V66ZM489.844 66H485.508L499.945 30.8438H504.422L518.836 66H514.5L510.68 56.5078H493.664L489.844 66ZM495.117 52.8516H509.227L502.172 35.2969L495.117 52.8516Z" fill="black"/>
<path d="M50.2227 144V114.703H52.8008V144H50.2227ZM61.3945 144H59.2461V114.703H61.6484V128.18C62.4948 126.917 63.6081 125.921 64.9883 125.191C66.3685 124.449 67.9049 124.078 69.5977 124.078C71.5117 124.078 73.2174 124.521 74.7148 125.406C76.2253 126.292 77.4167 127.503 78.2891 129.039C79.1615 130.562 79.5977 132.294 79.5977 134.234C79.5977 136.161 79.1615 137.893 78.2891 139.43C77.4167 140.966 76.2253 142.177 74.7148 143.062C73.2174 143.948 71.5117 144.391 69.5977 144.391C67.8659 144.391 66.2969 144.007 64.8906 143.238C63.4974 142.47 62.3711 141.441 61.5117 140.152L61.3945 144ZM69.4023 142.223C70.8737 142.223 72.1888 141.878 73.3477 141.188C74.5195 140.484 75.444 139.534 76.1211 138.336C76.7982 137.125 77.1367 135.764 77.1367 134.254C77.1367 132.73 76.7982 131.363 76.1211 130.152C75.444 128.941 74.5195 127.991 73.3477 127.301C72.1888 126.598 70.8737 126.246 69.4023 126.246C67.9961 126.246 66.7201 126.572 65.5742 127.223C64.4414 127.861 63.5234 128.74 62.8203 129.859C62.1302 130.966 61.7396 132.229 61.6484 133.648V134.801C61.7396 136.22 62.1302 137.49 62.8203 138.609C63.5104 139.729 64.4219 140.615 65.5547 141.266C66.7005 141.904 67.9831 142.223 69.4023 142.223ZM99.6953 144H97.6445L97.4492 140.738C96.7982 141.858 95.8867 142.75 94.7148 143.414C93.543 144.065 92.2083 144.391 90.7109 144.391C89.3307 144.391 88.0938 144.124 87 143.59C85.9193 143.043 85.0664 142.301 84.4414 141.363C83.8164 140.413 83.5039 139.339 83.5039 138.141C83.5039 136.891 83.8424 135.784 84.5195 134.82C85.1966 133.857 86.1276 133.102 87.3125 132.555C88.4974 131.995 89.8451 131.715 91.3555 131.715C92.4102 131.715 93.4583 131.852 94.5 132.125C95.5417 132.398 96.4727 132.783 97.293 133.277V131.949C97.293 130.764 97.0326 129.749 96.5117 128.902C95.9909 128.056 95.2747 127.411 94.3633 126.969C93.4648 126.513 92.4427 126.285 91.2969 126.285C90.3073 126.285 89.3177 126.467 88.3281 126.832C87.3385 127.184 86.4141 127.711 85.5547 128.414L84.6953 126.344C85.763 125.602 86.9023 125.042 88.1133 124.664C89.3372 124.273 90.5547 124.078 91.7656 124.078C93.3932 124.078 94.793 124.41 95.9648 125.074C97.1497 125.738 98.0677 126.682 98.7188 127.906C99.3698 129.117 99.6953 130.562 99.6953 132.242V144ZM91.1016 142.184C92.2344 142.184 93.2565 141.943 94.168 141.461C95.0924 140.966 95.8346 140.276 96.3945 139.391C96.9544 138.492 97.2539 137.464 97.293 136.305V135.641C96.4857 135.029 95.6068 134.566 94.6562 134.254C93.7188 133.928 92.7422 133.766 91.7266 133.766C90.0729 133.766 88.6992 134.163 87.6055 134.957C86.5247 135.751 85.9844 136.773 85.9844 138.023C85.9844 138.805 86.2057 139.514 86.6484 140.152C87.1042 140.777 87.7161 141.272 88.4844 141.637C89.2656 142.001 90.138 142.184 91.1016 142.184ZM113.992 143.863C112.143 143.863 110.483 143.434 109.012 142.574C107.54 141.702 106.375 140.523 105.516 139.039C104.669 137.542 104.246 135.855 104.246 133.98C104.246 132.092 104.669 130.406 105.516 128.922C106.375 127.424 107.54 126.246 109.012 125.387C110.483 124.514 112.15 124.078 114.012 124.078C115.704 124.078 117.228 124.449 118.582 125.191C119.949 125.934 121.043 126.93 121.863 128.18L121.98 124.469H124.129V143.512C124.129 145.712 123.712 147.607 122.879 149.195C122.046 150.784 120.854 152.008 119.305 152.867C117.755 153.727 115.906 154.156 113.758 154.156C110.698 154.156 108.074 153.121 105.887 151.051L107.02 149.137C108.816 151.038 111.049 151.988 113.719 151.988C115.372 151.988 116.792 151.637 117.977 150.934C119.174 150.243 120.099 149.267 120.75 148.004C121.401 146.741 121.727 145.237 121.727 143.492V139.918C120.893 141.129 119.806 142.092 118.465 142.809C117.124 143.512 115.633 143.863 113.992 143.863ZM114.188 141.734C115.568 141.734 116.818 141.422 117.938 140.797C119.057 140.172 119.956 139.319 120.633 138.238C121.323 137.145 121.688 135.908 121.727 134.527V133.434C121.688 132.04 121.323 130.803 120.633 129.723C119.956 128.629 119.057 127.77 117.938 127.145C116.831 126.52 115.587 126.207 114.207 126.207C112.775 126.207 111.486 126.552 110.34 127.242C109.207 127.919 108.309 128.844 107.645 130.016C106.993 131.174 106.668 132.496 106.668 133.98C106.668 135.452 106.993 136.773 107.645 137.945C108.309 139.117 109.207 140.042 110.34 140.719C111.473 141.396 112.755 141.734 114.188 141.734ZM147.664 144H145.535L145.457 140.328C144.767 141.643 143.816 142.652 142.605 143.355C141.408 144.046 139.969 144.391 138.289 144.391C135.711 144.391 133.68 143.609 132.195 142.047C130.724 140.471 129.988 138.31 129.988 135.562V124.469H132.391V135.406C132.391 137.49 132.957 139.143 134.09 140.367C135.223 141.578 136.753 142.184 138.68 142.184C140.672 142.184 142.267 141.546 143.465 140.27C144.663 138.98 145.262 137.268 145.262 135.133V124.469H147.664V144ZM171.082 141.559C168.686 143.447 166.03 144.391 163.113 144.391C161.095 144.391 159.285 143.941 157.684 143.043C156.095 142.132 154.845 140.895 153.934 139.332C153.022 137.77 152.566 135.999 152.566 134.02C152.566 132.105 152.99 130.4 153.836 128.902C154.695 127.405 155.867 126.227 157.352 125.367C158.836 124.508 160.522 124.078 162.41 124.078C164.324 124.078 166.01 124.534 167.469 125.445C168.927 126.344 170.066 127.594 170.887 129.195C171.707 130.784 172.117 132.626 172.117 134.723V135.328H155.164C155.32 136.695 155.77 137.893 156.512 138.922C157.254 139.951 158.211 140.751 159.383 141.324C160.568 141.897 161.889 142.184 163.348 142.184C165.743 142.184 167.944 141.389 169.949 139.801L171.082 141.559ZM155.086 133.258H169.871C169.754 131.865 169.37 130.647 168.719 129.605C168.068 128.564 167.208 127.75 166.141 127.164C165.086 126.578 163.882 126.285 162.527 126.285C161.16 126.285 159.93 126.578 158.836 127.164C157.755 127.75 156.883 128.57 156.219 129.625C155.568 130.667 155.19 131.878 155.086 133.258ZM162.918 121.207H161.16L164.324 114.703H166.707L162.918 121.207ZM189.478 146.96V142.52H185.158V140.44H189.478V136H191.558V140.44H195.878V142.52H191.558V146.96H189.478ZM217.194 129.36V123.2H220.034V129.36H217.194ZM209.274 134.32V131.48H215.434V134.32H209.274ZM221.914 134.32V131.48H228.074V134.32H221.914ZM217.194 142.52V136.36H220.034V142.52H217.194ZM234.539 144.391C234.07 144.391 233.686 144.241 233.387 143.941C233.087 143.642 232.938 143.251 232.938 142.77C232.938 142.288 233.087 141.897 233.387 141.598C233.686 141.285 234.07 141.129 234.539 141.129C235.021 141.129 235.411 141.285 235.711 141.598C236.023 141.897 236.18 142.288 236.18 142.77C236.18 143.251 236.023 143.642 235.711 143.941C235.411 144.241 235.021 144.391 234.539 144.391ZM240.192 133.12V130.72H243.072V127.92H245.712V130.72H248.592V133.12H245.712V135.92H243.072V133.12H240.192Z" fill="black"/>
<path d="M310.859 138V102.844H323.867C327.648 102.844 330.578 103.648 332.656 105.258C334.75 106.852 335.797 109.094 335.797 111.984C335.797 113.75 335.383 115.312 334.555 116.672C333.727 118.016 332.609 119.039 331.203 119.742C333.203 120.336 334.758 121.359 335.867 122.812C336.992 124.25 337.555 126.016 337.555 128.109C337.555 130.109 337.062 131.852 336.078 133.336C335.109 134.805 333.734 135.953 331.953 136.781C330.188 137.594 328.109 138 325.719 138H310.859ZM318.078 117.562H323.469C325.078 117.562 326.352 117.18 327.289 116.414C328.227 115.648 328.695 114.609 328.695 113.297C328.695 112.016 328.219 111.008 327.266 110.273C326.328 109.523 325.023 109.148 323.352 109.148H318.078V117.562ZM318.078 131.695H323.914C325.195 131.695 326.305 131.516 327.242 131.156C328.18 130.781 328.898 130.258 329.398 129.586C329.914 128.898 330.172 128.102 330.172 127.195C330.172 126.289 329.938 125.516 329.469 124.875C329.016 124.234 328.352 123.75 327.477 123.422C326.602 123.078 325.562 122.906 324.359 122.906H318.078V131.695ZM341.938 138V102.844H364.625V109.148H349.156V117.141H363.664V123.469H349.156V131.695H364.859V138H341.938ZM402.289 138H393.992L377.562 114V138H370.344V102.844H378.641L395.07 126.891V102.844H402.289V138ZM408.031 138V102.844H430.719V109.148H415.25V117.141H429.758V123.469H415.25V131.695H430.953V138H408.031ZM459.406 138H436.438V102.844H443.656V131.695H459.406V138ZM478.438 138.703C475.766 138.703 473.297 138.25 471.031 137.344C468.781 136.422 466.82 135.141 465.148 133.5C463.492 131.844 462.203 129.906 461.281 127.688C460.375 125.469 459.922 123.047 459.922 120.422C459.922 117.797 460.375 115.375 461.281 113.156C462.203 110.922 463.492 108.984 465.148 107.344C466.82 105.688 468.781 104.406 471.031 103.5C473.297 102.594 475.766 102.141 478.438 102.141C481.109 102.141 483.57 102.602 485.82 103.523C488.07 104.43 490.016 105.703 491.656 107.344C493.312 108.984 494.602 110.914 495.523 113.133C496.445 115.352 496.906 117.781 496.906 120.422C496.906 123.047 496.445 125.477 495.523 127.711C494.617 129.93 493.336 131.859 491.68 133.5C490.023 135.141 488.07 136.422 485.82 137.344C483.57 138.25 481.109 138.703 478.438 138.703ZM478.438 132.398C480.016 132.398 481.477 132.094 482.82 131.484C484.18 130.875 485.359 130.031 486.359 128.953C487.359 127.859 488.133 126.594 488.68 125.156C489.242 123.703 489.523 122.125 489.523 120.422C489.523 118.719 489.242 117.141 488.68 115.688C488.133 114.234 487.359 112.969 486.359 111.891C485.359 110.797 484.18 109.953 482.82 109.359C481.477 108.75 480.016 108.445 478.438 108.445C476.844 108.445 475.367 108.75 474.008 109.359C472.664 109.953 471.484 110.797 470.469 111.891C469.469 112.969 468.688 114.234 468.125 115.688C467.578 117.141 467.305 118.719 467.305 120.422C467.305 122.125 467.578 123.703 468.125 125.156C468.688 126.609 469.469 127.883 470.469 128.977C471.484 130.055 472.664 130.898 474.008 131.508C475.367 132.102 476.844 132.398 478.438 132.398ZM519.547 138H511.906L497.891 102.844H505.461L515.727 129.75L525.945 102.844H533.539L519.547 138ZM537.523 138H529.953L543.969 102.844H551.586L565.578 138H558.008L555.125 130.453H540.406L537.523 138ZM542.773 124.125H552.781L547.766 111.094L542.773 124.125Z" fill="black"/>
</g>
<defs>
<clipPath id="clip0_10_4">
<rect width="616" height="170" fill="white"/>
</clipPath>
</defs>
</svg>
